<svg width="12" height="13" viewBox="0 0 12 13" fill="none" xmlns="http://www.w3.org/2000/svg">
<path d="M5.91812 7.10748C7.6525 7.10748 9.06354 5.69645 9.06354 3.96207C9.06354 2.22768 7.6525 0.81665 5.91812 0.81665C4.18374 0.81665 2.7727 2.22768 2.7727 3.96207C2.7727 5.69645 4.18353 7.10748 5.91812 7.10748ZM5.91812 1.86512C7.07438 1.86512 8.01507 2.80581 8.01507 3.96207C8.01507 5.11832 7.07438 6.05901 5.91812 6.05901C4.76186 6.05901 3.82117 5.11832 3.82117 3.96207C3.82117 2.80581 4.76187 1.86512 5.91812 1.86512Z" fill="#1296DB"/>
<path d="M6.12783 12.3499C7.71795 12.3499 9.23865 12.1783 10.3001 11.8793C11.5394 11.5306 12.1058 11.0556 11.9838 10.4676C11.4539 7.91314 8.99121 6.05902 6.12783 6.05902C3.26467 6.05902 0.801804 7.91293 0.271697 10.4674C0.149655 11.0556 0.716039 11.5304 1.95554 11.8791C3.01681 12.1783 4.53772 12.3499 6.12783 12.3499ZM10.917 10.5064C10.7916 10.5901 10.5174 10.7291 10.0162 10.87C9.04322 11.1441 7.6261 11.3014 6.12804 11.3014C4.62978 11.3014 3.21287 11.1441 2.23989 10.87C1.73851 10.7289 1.46423 10.5901 1.33883 10.5064C1.84315 8.5265 3.82602 7.1077 6.12804 7.1077C8.43007 7.1077 10.4127 8.52671 10.917 10.5064Z" fill="#1296DB"/>
</svg>
