<svg width="22" height="21" viewBox="0 0 22 21" fill="none" xmlns="http://www.w3.org/2000/svg">
<path d="M9.46 4.49999L10 3.90999V7.49999C10 7.7652 10.1054 8.01956 10.2929 8.20709C10.4804 8.39463 10.7348 8.49999 11 8.49999C11.2652 8.49999 11.5196 8.39463 11.7071 8.20709C11.8946 8.01956 12 7.7652 12 7.49999V3.90999L12.54 4.45999C12.6308 4.56251 12.7416 4.6453 12.8657 4.70322C12.9898 4.76114 13.1244 4.79296 13.2613 4.79671C13.3982 4.80047 13.5344 4.77606 13.6615 4.72502C13.7885 4.67398 13.9038 4.59739 14 4.49999C14.0937 4.40702 14.1681 4.29642 14.2189 4.17456C14.2697 4.05271 14.2958 3.922 14.2958 3.78999C14.2958 3.65798 14.2697 3.52727 14.2189 3.40541C14.1681 3.28355 14.0937 3.17295 14 3.07999L11.71 0.789988C11.6149 0.698947 11.5028 0.627582 11.38 0.579988C11.1365 0.47997 10.8635 0.47997 10.62 0.579988C10.4972 0.627582 10.3851 0.698947 10.29 0.789988L8 3.03999C7.80639 3.2336 7.69762 3.49618 7.69762 3.76999C7.69762 4.04379 7.80639 4.30638 8 4.49999C8.19361 4.6936 8.4562 4.80236 8.73 4.80236C9.0038 4.80236 9.26639 4.6936 9.46 4.49999ZM11 10.5C10.4067 10.5 9.82664 10.6759 9.33329 11.0056C8.83994 11.3352 8.45542 11.8038 8.22836 12.3519C8.0013 12.9001 7.94189 13.5033 8.05764 14.0853C8.1734 14.6672 8.45912 15.2018 8.87868 15.6213C9.29824 16.0409 9.83279 16.3266 10.4147 16.4423C10.9967 16.5581 11.5999 16.4987 12.1481 16.2716C12.6962 16.0446 13.1648 15.66 13.4944 15.1667C13.8241 14.6734 14 14.0933 14 13.5C14 12.7043 13.6839 11.9413 13.1213 11.3787C12.5587 10.8161 11.7956 10.5 11 10.5ZM11 14.5C10.8022 14.5 10.6089 14.4413 10.4444 14.3315C10.28 14.2216 10.1518 14.0654 10.0761 13.8827C10.0004 13.6999 9.98063 13.4989 10.0192 13.3049C10.0578 13.1109 10.153 12.9327 10.2929 12.7929C10.4327 12.653 10.6109 12.5578 10.8049 12.5192C10.9989 12.4806 11.2 12.5004 11.3827 12.5761C11.5654 12.6518 11.7216 12.78 11.8315 12.9444C11.9414 13.1089 12 13.3022 12 13.5C12 13.7652 11.8946 14.0196 11.7071 14.2071C11.5196 14.3946 11.2652 14.5 11 14.5ZM4 13.5C4 13.6978 4.05865 13.8911 4.16853 14.0556C4.27841 14.22 4.43459 14.3482 4.61732 14.4239C4.80004 14.4996 5.00111 14.5194 5.19509 14.4808C5.38907 14.4422 5.56725 14.3469 5.70711 14.2071C5.84696 14.0672 5.9422 13.8891 5.98079 13.6951C6.01937 13.5011 5.99957 13.3 5.92388 13.1173C5.84819 12.9346 5.72002 12.7784 5.55557 12.6685C5.39112 12.5586 5.19778 12.5 5 12.5C4.73478 12.5 4.48043 12.6053 4.29289 12.7929C4.10536 12.9804 4 13.2348 4 13.5ZM18 13.5C18 13.3022 17.9414 13.1089 17.8315 12.9444C17.7216 12.78 17.5654 12.6518 17.3827 12.5761C17.2 12.5004 16.9989 12.4806 16.8049 12.5192C16.6109 12.5578 16.4327 12.653 16.2929 12.7929C16.153 12.9327 16.0578 13.1109 16.0192 13.3049C15.9806 13.4989 16.0004 13.6999 16.0761 13.8827C16.1518 14.0654 16.28 14.2216 16.4444 14.3315C16.6089 14.4413 16.8022 14.5 17 14.5C17.2652 14.5 17.5196 14.3946 17.7071 14.2071C17.8946 14.0196 18 13.7652 18 13.5ZM19 6.49999H15C14.7348 6.49999 14.4804 6.60535 14.2929 6.79288C14.1054 6.98042 14 7.23477 14 7.49999C14 7.7652 14.1054 8.01956 14.2929 8.20709C14.4804 8.39463 14.7348 8.49999 15 8.49999H19C19.2652 8.49999 19.5196 8.60534 19.7071 8.79288C19.8946 8.98042 20 9.23477 20 9.49999V17.5C20 17.7652 19.8946 18.0196 19.7071 18.2071C19.5196 18.3946 19.2652 18.5 19 18.5H3C2.73478 18.5 2.48043 18.3946 2.29289 18.2071C2.10536 18.0196 2 17.7652 2 17.5V9.49999C2 9.23477 2.10536 8.98042 2.29289 8.79288C2.48043 8.60534 2.73478 8.49999 3 8.49999H7C7.26522 8.49999 7.51957 8.39463 7.70711 8.20709C7.89464 8.01956 8 7.7652 8 7.49999C8 7.23477 7.89464 6.98042 7.70711 6.79288C7.51957 6.60535 7.26522 6.49999 7 6.49999H3C2.20435 6.49999 1.44129 6.81606 0.87868 7.37867C0.31607 7.94128 0 8.70434 0 9.49999V17.5C0 18.2956 0.31607 19.0587 0.87868 19.6213C1.44129 20.1839 2.20435 20.5 3 20.5H19C19.7956 20.5 20.5587 20.1839 21.1213 19.6213C21.6839 19.0587 22 18.2956 22 17.5V9.49999C22 8.70434 21.6839 7.94128 21.1213 7.37867C20.5587 6.81606 19.7956 6.49999 19 6.49999Z" fill="white"/>
</svg>
